<svg xmlns="http://www.w3.org/2000/svg" width="291" height="315" fill="none" viewBox="0 0 291 315">
  <path class="brand-primary" d="m22.69 27.46 47.98 38.12-31.5 31.41 22.01 18.96 66.92 28.5 17.34 34.64 9.61-33.89 66.98-27.75 31.5-20.46-31.5-31.41 47.98-38.12-16.48 69.53 21.81 42.55L285.06 0l-91.19 55.78 11.48 6.42c-65.79-13.62-114.29 2.09-114.29 2.09l9.63-6.27L5.84.01l9.56 137.31L39.17 97 22.69 27.46Z"/>
  <path class="brand-offset" d="m275.33 139.54-21.81-42.55-31.5 20.46-66.98 27.75-9.6 33.89-17.34-34.64-66.92-28.5-22.01-18.96-23.77 40.32.16 2.23L0 163.43l18.67 40.54 59.89 39.82 19.45 41.99 41.91 28.61.06-15.58-23.3-21.44 9.43-5.5h36.94l6.66 5.51-20.25 21.35.02 15.74 43.41-28.69 19.45-41.99 59.89-39.82 18.67-40.54-15.57-23.89Zm-154.42 90.84-7.56-66.9-32.58-4.65-19.59-31.03 59.73 21.72v80.86Zm89.2-71.56-32.58 4.65-7.56 66.9V149.5l59.73-21.72-19.59 31.04Z"/>
  <path class="brand-light" d="m253.52 96.99 6.53 60.39-60.21 54.56-29.86 46.5h-26.54l2.01 13.44h17.6l6.66 5.51-20.25 21.35.02 15.74 43.41-28.69 19.45-41.99 59.89-39.82 18.67-40.54-15.56-23.89-21.82-42.56Zm-77.32 56.89 38.52-14.01-8.33 13.2-30.19 4.31v-3.5Zm-62.07 0-38.52-14.01 8.33 13.2 30.19 4.31v-3.5Z"/>
  <path class="brand-primary" d="m142.59 292-14.49-13.17 2.39-1.44h27.92l.36.33L146.34 292h-3.75Z"/>
  <path class="brand-offset" d="M285.05 0 270 27.46l-16.48 69.53 21.81 42.55L285.05 0ZM5.83 0l9.72 139.54 23.62-42.55L17.56 7.17 5.83 0Z"/>
  <path class="brand-light" d="m5.83 0 6.22 9.19 78.99 49.25v5.84l9.64-6.26L5.83 0Zm199.51 62.2-2.29-7.01 77.71-47.37L285.05 0l-91.19 55.78 11.48 6.42Zm-61.91 196.24-33.88-.75-14.68-34-66.32-52.5 10.62-74.21L15.4 137.3l.16 2.23L0 163.42l18.67 40.54 59.89 39.82 19.45 41.99 41.91 28.61.06-15.58-23.3-21.44 9.43-5.5h19.33l-2.01-13.42ZM205.34 62.2c-65.79-13.62-114.29 2.09-114.29 2.09s63.7-10.09 114.29-2.09Z"/>
  <style>
    :root {
      --brand-primary: #11a56f;
      --brand-offset: #00fba8;
      --brand-light: #7afcc7;
    }
    .brand-primary {
      fill: var(--brand-primary);
    }
    .brand-offset {
      fill: var(--brand-offset);
    }
    .brand-light {
      fill: var(--brand-light);
    }
  </style>
</svg>
